# xmcd
#
# Track frame offsets: 
#        150
#        11479
#        24139
#        35490
#        45420
#        56111
#        66477
#        77935
#        89459
#        101508
#
# Disc length: 1505 seconds
#
# Revision: 2
# Processed by: cddbd v1.5.2PL0 Copyright (c) Steve Scherf et al.
# Submitted via: ExactAudioCopyFreeDBPlugin 1.0
#
DISCID=7905df0a
DTITLE=Kitty Wells  - Queen of Country Music
DYEAR=2006
DGENRE=Country
TTITLE0=It Wasn't God Who Made Honkey Tonk Angels
TTITLE1=Makin' Believe
TTITLE2=Heartbreak U.S.A.
TTITLE3=I Can't Stop Loving You
TTITLE4=Unloved, Unwanted
TTITLE5=Searching
TTITLE6=Password
TTITLE7=Left to Right
TTITLE8=Paying for That Back Street Affair
TTITLE9=You Don't Hear
EXTD=
EXTT0=
EXTT1=
EXTT2=
EXTT3=
EXTT4=
EXTT5=
EXTT6=
EXTT7=
EXTT8=
EXTT9=
PLAYORDER=
